<?xml version="1.0" encoding="UTF-8"?>
<svg id="Layer_1" xmlns="http://www.w3.org/2000/svg" version="1.1" viewBox="0 0 600 600">
  <!-- Generator: Adobe Illustrator 30.2.1, SVG Export Plug-In . SVG Version: 2.1.1 Build 1)  -->
  <defs>
    <style>
      .st0 {
        fill-rule: evenodd;
      }
    </style>
  </defs>
  <path class="st0" d="M484.22,115.24c-.78,1.44,1.1,4.79,1.1,4.79-35.95,39.84-59.69,58.69-66.61,48.65-5.54-19.06-2.77-37.91,5.94-56.61l7.39-3.46,1.43-16.4-11.37,11.91,2.33,7.98c-9.4,15.76-19.49,29.73-31.04,39.94-12.16,10.75-15.88,12.25-23.74-4.65-5.82-12.53-7.82-29.3-11.74-43.95l9.95-11.63-13.01-37.06-13.01,37.06,9.96,11.62c-3.91,14.65-5.91,31.43-11.74,43.95-7.86,16.9-11.57,15.4-23.73,4.65-11.55-10.2-21.65-24.17-31.05-39.94l2.33-7.98-11.38-11.9,1.43,16.4,7.41,3.46c8.7,18.7,11.47,37.55,5.94,56.61-6.93,10.04-30.66-8.81-66.61-48.65l1.1-4.79-7.49-7,1.48,10.15,4.44,1.78,49.34,85.89-.06.03,1.93,3.24c88.53-29.19,143.21-5.08,143.21-5.08,0,0-21.67-13.64-70.32-13.54-35.9-.07-59.54,8.33-69.47,12.75l-19.13-37.44c.32.26.64.51.96.77,8.01,6.42,22.07,16.83,32.72,10.62,1.8-1.04,3.31-2.48,4.5-4.2l.74-1.06.36-1.25c2.15-7.4,3.16-14.75,3.16-22.01,2.92,3.22,5.98,6.28,9.2,9.12,5.41,4.79,12.27,11.09,20.09,9.93,8.45-1.24,12.93-10.26,16.15-17.19,3.58-7.68,5.72-16.26,7.56-24.66,1.85,8.4,3.99,16.98,7.56,24.66,3.23,6.93,7.71,15.95,16.16,17.19,7.83,1.16,14.69-5.15,20.09-9.93,3.21-2.84,6.28-5.9,9.2-9.12.01,7.27,1.02,14.61,3.16,22.01l.36,1.25.73,1.06c1.18,1.72,2.69,3.16,4.5,4.2,10.65,6.2,24.7-4.2,32.71-10.62.3-.23.58-.46.87-.7l-25.1,43.79c-11.59-3.95-34.53-9.92-67.12-9.86-48.28-.1-69.99,13.34-70.32,13.54.51-.22,51.35-22.33,134.06,2.21,2.59.78,5.2,1.58,7.84,2.44l56.22-98.04,4.44-1.77,1.48-10.15s-6.43,5.03-7.49,6.99h0Z"/>
  <path d="M166.07,347.19h28.73c11.97,0,21.95-1.33,29.94-3.99s14.38-6.65,19.17-11.98c4.79-5.32,8.21-11.97,10.26-19.94,2.06-7.99,3.1-17.3,3.1-27.96s-1.13-20.18-3.39-27.83c-2.26-7.67-5.93-13.93-10.99-18.79-5.05-4.86-11.6-8.38-19.65-10.58-8.05-2.19-17.86-3.29-29.43-3.29h-27.74v124.38-.02ZM297,445.17c6.92,10.93,13.65,19.13,20.16,24.57,6.52,5.46,14.1,8.18,22.75,8.18h1.21v17.16h-5.78c-12.78,0-23.26-.46-31.45-1.37-8.18-.93-15.14-2.73-20.87-5.4-5.71-2.66-10.6-6.39-14.67-11.19-4.07-4.79-8.43-11.04-13.07-18.76l-55.29-92.04h-33.94v84.24c0,5.99.89,10.82,2.68,14.48,1.81,3.67,4.23,6.44,7.29,8.31,3.07,1.85,6.62,3.08,10.67,3.68,4.07.6,8.36.89,12.88.89h5.4v17.16h-118.98v-17.16h5.21c4.51,0,8.8-.3,12.85-.89,4.07-.59,7.62-1.82,10.67-3.68,3.07-1.87,5.5-4.64,7.29-8.31,1.81-3.66,2.72-8.48,2.72-14.48v-202.38c0-5.98-.91-10.81-2.72-14.48-1.79-3.66-4.22-6.49-7.29-8.47-3.05-2-6.61-3.3-10.67-3.9-4.05-.62-8.33-.93-12.85-.93h-5.21v-17.16h110c35.38,0,61.72,6.57,79.03,19.68,17.3,13.1,25.95,32.82,25.95,59.15,0,10.93-1.77,20.48-5.31,28.67-3.52,8.18-8.14,15.27-13.87,21.25-5.71,5.99-12.17,10.98-19.37,14.99-7.18,3.99-14.36,7.17-21.54,9.56l56.08,88.62h.04Z"/>
  <path d="M378.22,475.16c15.44,0,28.96-2.62,40.55-7.86,11.58-5.26,21.24-12.95,28.96-23.07,7.73-10.14,13.53-22.61,17.38-37.42,3.85-14.83,5.79-31.86,5.79-51.1,0-38.62-7.7-68.13-23.07-88.52-15.39-20.39-38.46-30.58-69.22-30.58h-34.2v238.56h33.81ZM514,355.7c0,21.27-2.67,40.48-7.99,57.65-5.3,17.15-13.22,31.78-23.75,43.88-10.5,12.08-23.67,21.38-39.5,27.9-15.81,6.52-34.29,9.78-55.45,9.78l-46.21.17-70.97-16.46,3.04-.05c4.43,0,8.57-.32,12.43-.96,3.87-.64,7.26-1.93,10.16-3.9,2.92-1.96,5.19-4.77,6.84-8.44,1.66-3.68,2.49-8.56,2.49-14.64v-190.69c0-5.69-.86-10.27-2.59-13.74-1.71-3.49-4.02-6.18-6.93-8.09-2.9-1.92-6.29-3.15-10.16-3.71-3.86-.58-7.94-.86-12.24-.86h-4.92v-8.67l-3.51-8,122.58.33c20,0,37.85,3.07,53.56,9.2,15.7,6.14,28.96,15.1,39.79,26.88,10.82,11.78,19.08,26.28,24.77,43.49,5.71,17.22,8.57,36.85,8.57,58.9v.03Z"/>
</svg>