<?xml version="1.0" encoding="UTF-8" standalone="no"?><!DOCTYPE svg PUBLIC "-//W3C//DTD SVG 1.1//EN" "http://www.w3.org/Graphics/SVG/1.1/DTD/svg11.dtd"><svg width="100%" height="100%" viewBox="0 0 2084 2084" version="1.1" xmlns="http://www.w3.org/2000/svg" xmlns:xlink="http://www.w3.org/1999/xlink" xml:space="preserve" xmlns:serif="http://www.serif.com/" style="fill-rule:evenodd;clip-rule:evenodd;stroke-linejoin:round;stroke-miterlimit:2;"><g><g><clipPath id="_clip1"><rect x="704.782" y="119.704" width="1093.795" height="657.505"/></clipPath><g clip-path="url(#_clip1)"><path d="M1765.833,365.503c-3.131,5.774 4.417,19.203 4.417,19.203c-144.021,159.608 -239.107,235.106 -266.855,194.877c-22.179,-76.364 -11.074,-151.862 23.812,-226.786l29.605,-13.859l5.73,-65.706l-45.543,47.719l9.346,31.973c-37.67,63.146 -78.091,119.09 -124.339,159.991c-48.712,43.046 -63.594,49.063 -95.086,-18.626c-23.331,-50.184 -31.333,-117.394 -47.014,-176.058l39.878,-46.599l-52.136,-148.47l-52.136,148.47l39.91,46.568c-15.683,58.696 -23.683,125.906 -47.047,176.058c-31.492,67.722 -46.343,61.705 -95.054,18.626c-46.279,-40.871 -86.733,-96.815 -124.371,-159.991l9.346,-31.973l-45.575,-47.687l5.73,65.706l29.668,13.859c34.853,74.923 45.959,150.423 23.779,226.786c-27.748,40.231 -122.834,-35.269 -266.855,-194.877l4.417,-19.203l-30.021,-28.036l5.921,40.646l17.795,7.136l197.662,344.084c-0.128,0.063 -0.224,0.128 -0.224,0.128l7.713,12.962c354.645,-116.913 573.685,-20.355 573.685,-20.355c0,0 -86.797,-54.632 -281.707,-54.248c-143.797,-0.288 -238.531,33.382 -278.313,51.079l-76.652,-149.975c1.28,1.023 2.56,2.048 3.84,3.072c32.1,25.732 88.397,67.402 131.059,42.567c7.201,-4.193 13.249,-9.953 18.019,-16.835l2.945,-4.256l1.441,-4.992c8.61,-29.636 12.642,-59.081 12.674,-88.173c11.714,12.898 23.971,25.155 36.869,36.549c21.667,19.171 49.159,44.423 80.492,39.782c33.861,-4.961 51.816,-41.095 64.713,-68.874c14.338,-30.789 22.915,-65.162 30.277,-98.798c7.393,33.637 15.97,68.009 30.277,98.798c12.929,27.78 30.885,63.882 64.746,68.874c31.364,4.641 58.825,-20.642 80.492,-39.782c12.866,-11.394 25.155,-23.651 36.869,-36.549c0.063,29.124 4.064,58.537 12.674,88.173l1.441,4.992l2.945,4.256c4.737,6.881 10.785,12.642 18.019,16.835c42.662,24.835 98.927,-16.835 131.027,-42.567c1.184,-0.928 2.336,-1.857 3.488,-2.817l-100.559,175.418c-46.439,-15.81 -138.324,-39.75 -268.904,-39.495c-193.404,-0.383 -280.362,53.417 -281.707,54.248c2.048,-0.897 205.695,-89.453 537.04,8.865c10.369,3.104 20.836,6.337 31.429,9.794l225.218,-392.762l17.795,-7.105l5.921,-40.646c0,0 -25.753,20.137 -30.021,28.005l-0.004,0Z"/></g></g></g><g><g><g><path d="M1015.836,1687.197c27.716,43.783 54.664,76.619 80.78,98.446c26.115,21.859 56.488,32.773 91.15,32.773l4.865,0l0,68.747l-23.172,0c-51.207,0 -93.197,-1.824 -125.971,-5.505c-32.773,-3.744 -60.649,-10.946 -83.596,-21.635c-22.883,-10.658 -42.471,-25.604 -58.761,-44.807c-16.323,-19.203 -33.765,-44.23 -52.359,-75.147l-221.474,-368.695l-135.957,0l0,337.458c0,24.004 3.585,43.335 10.754,57.993c7.234,14.69 16.963,25.795 29.189,33.284c12.289,7.426 26.531,12.354 42.758,14.723c16.29,2.401 33.477,3.585 51.592,3.585l21.635,0l0,68.747l-476.615,0l0,-68.747l20.867,0c18.082,0 35.237,-1.184 51.464,-3.585c16.29,-2.368 30.532,-7.297 42.758,-14.723c12.289,-7.489 22.02,-18.595 29.189,-33.284c7.234,-14.658 10.881,-33.989 10.881,-57.993l0,-810.745c0,-23.971 -3.649,-43.302 -10.881,-57.993c-7.169,-14.658 -16.898,-25.989 -29.189,-33.924c-12.226,-8.001 -26.468,-13.218 -42.758,-15.618c-16.227,-2.464 -33.382,-3.712 -51.464,-3.712l-20.867,0l0,-68.747l440.642,0c141.748,0 247.269,26.309 316.591,78.859c69.291,52.487 103.951,131.475 103.951,236.963c0,43.783 -7.105,82.06 -21.252,114.834c-14.083,32.773 -32.613,61.161 -55.561,85.133c-22.883,24.004 -48.743,44.006 -77.579,60.041c-28.773,15.97 -57.544,28.741 -86.285,38.278l224.674,354.997Zm-524.494,-392.507l115.089,0c47.944,0 87.948,-5.312 119.954,-16.003c32.004,-10.658 57.608,-26.66 76.811,-48.007c19.203,-21.315 32.901,-47.944 41.095,-79.884c8.257,-32.004 12.418,-69.322 12.418,-112.017c0,-43.686 -4.545,-80.844 -13.569,-111.505c-9.057,-30.724 -23.747,-55.816 -44.038,-75.276c-20.227,-19.458 -46.47,-33.573 -78.731,-42.375c-32.261,-8.769 -71.562,-13.186 -117.906,-13.186l-111.12,0l0,498.25l-0.001,0.003Z" style="fill-rule:nonzero;"/></g></g></g><g><g><g><path d="M1885.136,1328.805c0,85.197 -10.689,162.168 -32.004,230.946c-21.252,68.714 -52.968,127.315 -95.119,175.77c-42.086,48.39 -94.83,85.645 -158.232,111.76c-63.337,26.115 -137.364,39.173 -222.114,39.173l-185.141,0.698l-284.315,-65.934l12.171,-0.181c17.731,0 34.342,-1.28 49.799,-3.84c15.522,-2.56 29.093,-7.746 40.71,-15.618c11.682,-7.841 20.803,-19.107 27.396,-33.798c6.657,-14.754 9.986,-34.309 9.986,-58.633l0,-763.89c0,-22.787 -3.457,-41.126 -10.369,-55.048c-6.849,-13.987 -16.099,-24.772 -27.78,-32.389c-11.618,-7.681 -25.188,-12.609 -40.71,-14.85c-15.459,-2.304 -31.812,-3.457 -49.032,-3.457l-19.715,0l0,-34.715l-14.075,-32.022l491.075,1.32c80.14,0 151.638,12.289 214.56,36.869c62.889,24.58 116.018,60.49 159.384,107.663c43.335,47.208 76.428,105.296 99.214,174.233c22.852,68.97 34.309,147.606 34.309,235.94l0.003,0.001Zm-543.953,478.535c61.866,0 116.018,-10.497 162.456,-31.492c46.407,-21.06 85.068,-51.88 115.986,-92.43c30.981,-40.614 54.183,-90.574 69.642,-149.91c15.426,-59.401 23.172,-127.635 23.172,-204.702c0,-154.712 -30.82,-272.936 -92.43,-354.612c-61.641,-81.676 -154.07,-122.514 -277.29,-122.514l-136.98,0l0,955.662l135.445,0Z" style="fill-rule:nonzero;"/></g></g></g></svg>