<?xml version="1.0" encoding="UTF-8" standalone="no"?><!DOCTYPE svg PUBLIC "-//W3C//DTD SVG 1.1//EN" "http://www.w3.org/Graphics/SVG/1.1/DTD/svg11.dtd"><svg width="100%" height="100%" viewBox="0 0 2084 2084" version="1.1" xmlns="http://www.w3.org/2000/svg" xmlns:xlink="http://www.w3.org/1999/xlink" xml:space="preserve" xmlns:serif="http://www.serif.com/" style="fill-rule:evenodd;clip-rule:evenodd;stroke-linejoin:round;stroke-miterlimit:2;"><rect x="-110.411" y="-27.925" width="2243.413" height="2113.232" style="fill:#ebebeb;"/><g><g><clipPath id="_clip1"><rect x="694.069" y="106.751" width="1128.383" height="678.297"/></clipPath><g clip-path="url(#_clip1)"><path d="M1788.672,360.322c-3.23,5.956 4.557,19.81 4.557,19.81c-148.575,164.655 -246.669,242.541 -275.294,201.04c-22.881,-78.779 -11.424,-156.665 24.565,-233.957l30.541,-14.297l5.911,-67.784l-46.983,49.228l9.641,32.984c-38.861,65.142 -80.56,122.856 -128.27,165.051c-50.252,44.407 -65.605,50.614 -98.093,-19.215c-24.069,-51.771 -32.324,-121.106 -48.501,-181.625l41.139,-48.072l-53.785,-153.165l-53.785,153.165l41.173,48.04c-16.179,60.552 -24.432,129.888 -48.535,181.625c-32.488,69.863 -47.809,63.656 -98.06,19.215c-47.742,-42.163 -89.476,-99.876 -128.304,-165.051l9.641,-32.984l-47.016,-49.195l5.911,67.784l30.606,14.297c35.956,77.292 47.412,155.18 24.531,233.957c-28.625,41.503 -126.719,-36.385 -275.294,-201.04l4.557,-19.81l-30.97,-28.922l6.108,41.932l18.357,7.362l203.912,354.964c-0.132,0.065 -0.231,0.132 -0.231,0.132l7.957,13.372c365.859,-120.61 591.826,-20.999 591.826,-20.999c0,0 -89.541,-56.359 -290.615,-55.964c-148.344,-0.297 -246.074,34.437 -287.114,52.694l-79.076,-154.717c1.321,1.056 2.641,2.113 3.962,3.169c33.115,26.546 91.192,69.533 135.204,43.913c7.429,-4.325 13.668,-10.268 18.589,-17.367l3.038,-4.391l1.486,-5.15c8.882,-30.573 13.042,-60.949 13.075,-90.961c12.085,13.306 24.729,25.951 38.035,37.705c22.353,19.777 50.713,45.828 83.037,41.04c34.932,-5.118 53.455,-42.394 66.76,-71.052c14.791,-31.763 23.64,-67.222 31.235,-101.923c7.627,34.7 16.475,70.16 31.235,101.923c13.338,28.659 31.861,65.902 66.793,71.052c32.356,4.788 60.685,-21.295 83.037,-41.04c13.273,-11.754 25.951,-24.399 38.035,-37.705c0.065,30.045 4.193,60.388 13.075,90.961l1.486,5.15l3.038,4.391c4.887,7.099 11.126,13.042 18.589,17.367c44.011,25.621 102.055,-17.367 135.17,-43.913c1.222,-0.957 2.41,-1.915 3.598,-2.906l-103.739,180.965c-47.908,-16.31 -142.698,-41.007 -277.407,-40.743c-199.52,-0.396 -289.227,55.106 -290.615,55.964c2.113,-0.925 212.199,-92.281 554.022,9.145c10.697,3.203 21.495,6.538 32.423,10.104l232.34,-405.182l18.357,-7.33l6.108,-41.932c0,0 -26.567,20.773 -30.97,28.89l-0.005,0Z"/></g></g></g><g><g><g><path d="M1014.96,1723.811c28.592,45.168 56.393,79.042 83.334,101.559c26.941,22.55 58.275,33.809 94.033,33.809l5.019,0l0,70.921l-23.904,0c-52.827,0 -96.144,-1.882 -129.955,-5.679c-33.809,-3.863 -62.567,-11.292 -86.24,-22.319c-23.606,-10.995 -43.814,-26.413 -60.619,-46.224c-16.839,-19.81 -34.833,-45.629 -54.015,-77.524l-228.477,-380.354l-140.256,0l0,348.129c0,24.763 3.699,44.705 11.094,59.827c7.463,15.155 17.499,26.611 30.112,34.337c12.678,7.66 27.37,12.745 44.11,15.188c16.806,2.477 34.536,3.699 53.224,3.699l22.319,0l0,70.921l-491.686,0l0,-70.921l21.526,0c18.654,0 36.351,-1.222 53.091,-3.699c16.806,-2.443 31.498,-7.528 44.11,-15.188c12.678,-7.726 22.716,-19.184 30.112,-34.337c7.463,-15.121 11.225,-35.064 11.225,-59.827l0,-836.383c0,-24.729 -3.764,-44.672 -11.225,-59.827c-7.396,-15.121 -17.432,-26.81 -30.112,-34.997c-12.613,-8.254 -27.305,-13.636 -44.11,-16.112c-16.74,-2.542 -34.437,-3.829 -53.091,-3.829l-21.526,0l0,-70.921l454.576,0c146.231,0 255.088,27.141 326.602,81.353c71.482,54.147 107.238,135.633 107.238,244.456c0,45.168 -7.33,84.655 -21.924,118.465c-14.528,33.809 -33.645,63.095 -57.318,87.825c-23.606,24.763 -50.284,45.397 -80.033,61.94c-29.683,16.475 -59.364,29.649 -89.013,39.488l231.778,366.223Zm-541.079,-404.918l118.728,0c49.46,0 90.73,-5.48 123.747,-16.509c33.016,-10.995 59.43,-27.503 79.24,-49.525c19.81,-21.989 33.941,-49.46 42.394,-82.41c8.518,-33.016 12.81,-71.514 12.81,-115.559c0,-45.067 -4.689,-83.401 -13.999,-115.031c-9.343,-31.696 -24.498,-57.581 -45.431,-77.656c-20.866,-20.074 -47.94,-34.635 -81.221,-43.715c-33.281,-9.046 -73.825,-13.603 -121.634,-13.603l-114.634,0l0,514.005l-0.002,0.003Z" style="fill-rule:nonzero;"/></g></g></g><g><g><g><path d="M1911.749,1354.086c0,87.891 -11.027,167.296 -33.016,238.249c-21.924,70.887 -54.643,131.341 -98.127,181.328c-43.417,49.921 -97.828,88.353 -163.236,115.294c-65.34,26.941 -141.708,40.412 -229.137,40.412l-190.995,0.72l-293.306,-68.019l12.556,-0.187c18.292,0 35.428,-1.321 51.374,-3.962c16.013,-2.641 30.013,-7.99 41.997,-16.112c12.051,-8.089 21.461,-19.711 28.262,-34.866c6.868,-15.22 10.301,-35.394 10.301,-60.487l0,-788.046c0,-23.507 -3.566,-42.426 -10.697,-56.788c-7.065,-14.429 -16.608,-25.555 -28.659,-33.413c-11.986,-7.924 -25.984,-13.008 -41.997,-15.319c-15.947,-2.376 -32.818,-3.566 -50.582,-3.566l-20.338,0l0,-35.813l-14.52,-33.034l506.604,1.362c82.674,0 156.433,12.678 221.345,38.035c64.878,25.357 119.687,62.402 164.424,111.068c44.705,48.7 78.844,108.626 102.352,179.743c23.574,71.15 35.394,152.274 35.394,243.401l0.003,0.002Zm-561.154,493.667c63.822,0 119.687,-10.829 167.593,-32.488c47.874,-21.726 87.758,-53.52 119.653,-95.353c31.96,-41.898 55.897,-93.438 71.844,-154.65c15.914,-61.28 23.904,-131.671 23.904,-211.175c0,-159.604 -31.795,-281.567 -95.353,-365.826c-63.591,-84.259 -158.942,-126.388 -286.058,-126.388l-141.312,0l0,985.881l139.728,0Z" style="fill-rule:nonzero;"/></g></g></g></svg>